<mxfile host="app.diagrams.net" agent="Mozilla/5.0 (Windows NT 10.0; Win64; x64) AppleWebKit/537.36 (KHTML, like Gecko) Chrome/132.0.0.0 Safari/537.36 Edg/132.0.0.0" version="26.0.10">
  <diagram name="Page-1" id="u9qzqC4mu61JqOmZtt4Q">
    <mxGraphModel dx="1434" dy="827" grid="1" gridSize="10" guides="1" tooltips="1" connect="1" arrows="1" fold="1" page="1" pageScale="1" pageWidth="850" pageHeight="1100" math="0" shadow="0">
      <root>
        <mxCell id="0" />
        <mxCell id="1" parent="0" />
        <mxCell id="_fj4g9FkflZr4mRsiet7-4" style="edgeStyle=orthogonalEdgeStyle;rounded=0;orthogonalLoop=1;jettySize=auto;html=1;entryX=0;entryY=0.5;entryDx=0;entryDy=0;" edge="1" parent="1" source="_fj4g9FkflZr4mRsiet7-1" target="_fj4g9FkflZr4mRsiet7-2">
          <mxGeometry relative="1" as="geometry" />
        </mxCell>
        <mxCell id="_fj4g9FkflZr4mRsiet7-1" value="&lt;font style=&quot;font-size: 27px;&quot;&gt;Estimand:&lt;/font&gt;&lt;div&gt;&lt;font style=&quot;font-size: 27px;&quot;&gt;INT&lt;/font&gt;&lt;/div&gt;" style="rounded=1;whiteSpace=wrap;html=1;fillColor=#F5E0DC;" vertex="1" parent="1">
          <mxGeometry x="50" y="51.11" width="190" height="168.89" as="geometry" />
        </mxCell>
        <mxCell id="_fj4g9FkflZr4mRsiet7-5" style="edgeStyle=orthogonalEdgeStyle;rounded=0;orthogonalLoop=1;jettySize=auto;html=1;entryX=0;entryY=0.5;entryDx=0;entryDy=0;" edge="1" parent="1" source="_fj4g9FkflZr4mRsiet7-2" target="_fj4g9FkflZr4mRsiet7-3">
          <mxGeometry relative="1" as="geometry" />
        </mxCell>
        <mxCell id="_fj4g9FkflZr4mRsiet7-2" value="&lt;font style=&quot;font-size: 27px;&quot;&gt;Estimator:&lt;/font&gt;&lt;div&gt;&lt;font style=&quot;font-size: 27px;&quot;&gt;ACW-0&lt;/font&gt;&lt;/div&gt;" style="rounded=1;whiteSpace=wrap;html=1;fillColor=#F38BA8;" vertex="1" parent="1">
          <mxGeometry x="340" y="51.11" width="190" height="168.89" as="geometry" />
        </mxCell>
        <mxCell id="_fj4g9FkflZr4mRsiet7-3" value="&lt;font style=&quot;font-size: 27px;&quot;&gt;Estimate:&lt;/font&gt;&lt;div&gt;&lt;font style=&quot;font-size: 27px;&quot;&gt;ACW-0 of a single time-series&lt;/font&gt;&lt;/div&gt;" style="rounded=1;whiteSpace=wrap;html=1;fillColor=#FAB387;" vertex="1" parent="1">
          <mxGeometry x="620" y="50" width="191.25" height="170" as="geometry" />
        </mxCell>
      </root>
    </mxGraphModel>
  </diagram>
</mxfile>
